<?xml version="1.0" encoding="UTF-8" standalone="no"?>
<svg
   xmlns:dc="http://purl.org/dc/elements/1.1/"
   xmlns:cc="http://creativecommons.org/ns#"
   xmlns:rdf="http://www.w3.org/1999/02/22-rdf-syntax-ns#"
   xmlns:svg="http://www.w3.org/2000/svg"
   xmlns="http://www.w3.org/2000/svg"
   xmlns:sodipodi="http://sodipodi.sourceforge.net/DTD/sodipodi-0.dtd"
   xmlns:inkscape="http://www.inkscape.org/namespaces/inkscape"
   inkscape:version="1.0 (4035a4fb49, 2020-05-01)"
   sodipodi:docname="smallcat.svg"
   height="48pt"
   width="46.220001pt"
   xml:space="preserve"
   viewBox="0 0 61.541449 63.9115"
   y="0px"
   x="0px"
   id="Capa_1"
   version="1.1"><metadata
   id="metadata17"><rdf:RDF><cc:Work
       rdf:about=""><dc:format>image/svg+xml</dc:format><dc:type
         rdf:resource="http://purl.org/dc/dcmitype/StillImage" /><dc:title></dc:title></cc:Work></rdf:RDF></metadata><defs
   id="defs15" /><sodipodi:namedview
   units="pt"
   inkscape:current-layer="Capa_1"
   inkscape:window-maximized="1"
   inkscape:window-y="-8"
   inkscape:window-x="-8"
   inkscape:cy="109.55752"
   inkscape:cx="256"
   inkscape:zoom="1.0507812"
   showgrid="false"
   id="namedview13"
   inkscape:window-height="705"
   inkscape:window-width="1366"
   inkscape:pageshadow="2"
   inkscape:pageopacity="0"
   guidetolerance="10"
   gridtolerance="10"
   objecttolerance="10"
   borderopacity="1"
   bordercolor="#666666"
   pagecolor="#ffffff" />
<g
   style="fill:#ffffff"
   transform="matrix(0.125,0,0,0.125,220.21419,33.262221)"
   id="g10">
	<path
   style="fill:#ffffff"
   id="path2"
   d="m 441.926,84.441 c -6.009,0 -10.897,4.889 -10.897,10.897 0,6.01 4.889,10.898 10.897,10.898 6.009,0 10.898,-4.889 10.898,-10.898 0,-6.009 -4.889,-10.897 -10.898,-10.897 z" />
	<path
   style="fill:#ffffff"
   id="path4"
   d="m 444.953,465.679 c -6.017,-3.682 -12.018,-6.061 -16.259,-7.47 v -19.033 c 0,-4.143 -3.358,-7.5 -7.5,-7.5 -4.143,0 -7.5,3.357 -7.5,7.5 v 24.675 c 0,3.516 2.459,6.563 5.892,7.325 0.09,0.021 9.12,2.065 17.852,7.491 7.845,4.874 12.822,10.781 14.872,17.625 h -47.387 c -6.519,0 -12.36,-4.13 -14.535,-10.275 L 346.673,362.441 c -1.376,-3.893 -5.641,-5.939 -9.538,-4.582 -3.897,1.358 -5.966,5.611 -4.627,9.517 3.155,9.197 4.755,19.469 4.755,30.528 0,21.898 -10.805,37.278 -33.031,47.02 -19.151,8.394 -41.314,9.745 -49.954,9.936 -4.108,0.091 -7.379,3.472 -7.334,7.581 0.046,4.109 3.391,7.417 7.5,7.417 h 59.013 c 11.738,0 20.653,3.137 26.496,9.323 5.027,5.323 7.058,12.099 7.867,17.111 H 187.312 c -12.34,0 -23.51,-4.913 -33.2,-14.602 -1.274,-1.274 -2.966,-2.048 -4.765,-2.177 C 100.541,476.001 41.311,431.37 27.673,355.572 c -0.734,-4.076 -4.631,-6.783 -8.71,-6.054 -4.077,0.734 -6.787,4.634 -6.054,8.71 6.722,37.356 24.245,70.538 50.676,95.958 24.021,23.103 53.017,37.255 81.939,40.057 12.033,11.165 26.425,17.049 41.787,17.049 h 168.5 c 3.948,0 7.221,-3.062 7.483,-7.001 0.057,-0.843 1.221,-20.811 -12.306,-35.27 -7.995,-8.546 -19.16,-13.261 -33.232,-14.046 16.71,-9.18 27.561,-22.263 32.092,-38.58 l 26.398,74.624 c 4.291,12.126 15.814,20.272 28.676,20.272 h 55.961 c 4.143,0 7.5,-3.358 7.5,-7.5 0.001,-15.555 -8.101,-28.734 -23.43,-38.112 z" />
	<path
   style="fill:#ffffff"
   id="path6"
   d="m 24.6,326.742 c -2.175,-58.672 23.311,-92.475 45.073,-110.5 27.722,-22.962 57.793,-28.8 59.054,-29.036 4.711,-0.883 9.236,2.225 10.117,6.911 0.88,4.693 -2.222,9.229 -6.988,10.123 -1.132,0.225 -28.003,5.726 -52.122,26.165 -31.651,26.828 -43.73,66.063 -35.903,116.615 6.67,43.078 30.214,73.575 69.977,90.644 4.273,1.834 9.371,4.711 13.572,1.16 2.079,-1.758 3.043,-4.504 2.518,-7.175 -14.375,-73.086 26.439,-126.234 70.443,-144.689 17.86,-7.489 33.885,-16.124 47.628,-25.664 3.403,-2.361 4.247,-7.035 1.885,-10.438 -2.362,-3.402 -7.035,-4.247 -10.438,-1.885 -12.884,8.942 -27.982,17.068 -44.876,24.154 -64.987,27.252 -87.115,92.937 -81.414,147.692 -30.712,-15.35 -49.024,-40.917 -54.471,-76.096 -6.976,-45.043 3.38,-79.655 30.777,-102.877 20.969,-17.77 45.12,-22.85 45.265,-22.88 12.821,-2.406 21.295,-14.796 18.89,-27.618 -2.403,-12.808 -14.791,-21.278 -27.615,-18.89 -1.423,0.267 -35.188,6.819 -65.866,32.229 -24.362,20.181 -52.897,57.832 -50.496,122.61 0.154,4.14 3.672,7.341 7.773,7.218 4.139,-0.153 7.37,-3.634 7.217,-7.773 z" />
	<path
   style="fill:#ffffff"
   id="path8"
   d="m 501.759,113.863 c -0.043,-0.517 -0.042,-1.041 -0.114,-1.555 -0.299,-2.318 -1.254,-4.924 -3.013,-8.226 -0.047,-0.088 -0.102,-0.17 -0.152,-0.255 C 494.59,96.572 469.424,63.888 467.929,61.754 461.658,52.796 441.096,48.65 427.765,46.861 V 7.497 c 0,-4.601 -4.298,-8.195 -8.829,-7.382 -2.014,0.363 -48.37,9.195 -63.688,53.385 -9.488,4.473 -34.559,19.569 -43.561,57.221 -1.422,5.945 -2.585,12.474 -3.815,19.387 -5.325,29.91 -11.953,67.134 -46.182,100.587 -2.962,2.895 -3.017,7.644 -0.121,10.605 2.892,2.961 7.642,3.017 10.605,0.121 13.712,-13.401 23.399,-27.427 30.453,-41.312 44.197,30.503 88.549,36.539 116.658,36.539 2.104,0 4.113,-0.035 6.029,-0.095 1.753,3.338 3.428,6.245 4.741,8.519 l 0.864,1.502 c 1.392,2.436 33.53,60.355 -15.537,120.531 -1.092,1.338 -1.688,3.013 -1.688,4.739 v 37.332 c 0,4.143 3.357,7.5 7.5,7.5 4.142,0 7.5,-3.357 7.5,-7.5 v -34.697 c 20.395,-25.87 30.064,-54.357 28.745,-84.707 -1.21,-27.836 -11.455,-47.067 -13.497,-50.64 l -0.897,-1.56 c -4.348,-7.532 -15.246,-26.418 -12.8,-38.872 0.013,-0.054 0.025,-0.108 0.037,-0.162 0.241,-1.165 0.591,-2.277 1.086,-3.312 2.427,-5.078 8.5,-8.413 18.05,-9.911 21.836,-3.425 37.755,-15.963 46.035,-36.26 3.327,-8.155 6.901,-27.962 6.306,-35.192 z m -192.868,72.335 c 2.56,-6.461 4.643,-12.835 6.373,-19.038 14.639,13.111 46.045,33.996 99.705,36.995 0.244,5.882 1.712,11.865 3.707,17.492 -26.535,-0.082 -68.349,-6.001 -109.785,-35.449 z m 138.202,-15.701 c -14.729,2.311 -24.572,8.454 -29.259,18.262 -0.08,0.167 -0.144,0.338 -0.22,0.506 -36.411,-1.748 -61.32,-12.434 -76.02,-21.332 -11.783,-7.133 -18.991,-14.229 -22.234,-17.814 1.267,-6.094 2.307,-11.922 3.279,-17.382 1.191,-6.689 2.316,-13.009 3.636,-18.527 8.972,-37.52 36.37,-47.654 37.493,-48.054 2.292,-0.786 4.064,-2.631 4.755,-4.954 8.216,-27.582 31.381,-39.325 44.242,-43.837 v 36.172 c 0,3.853 2.922,7.08 6.757,7.463 16.342,1.632 33.564,6.1 36.118,9.356 1.723,2.461 4.564,6.094 8.163,10.694 4.548,5.814 13.315,17.024 18.625,25.09 -1.473,2.252 -2.318,4.918 -2.318,7.723 0,4.798 2.34,9.012 5.964,11.565 -2.224,18.309 -10.842,40.656 -38.981,45.069 z" />
</g>















</svg>
